<svg width="301" height="165" viewBox="0 0 301 165" fill="none" xmlns="http://www.w3.org/2000/svg">
<path d="M150.971 101.551L98.3791 73.7506L7.08721 25.5005C7.00388 25.4171 6.83722 25.4171 6.75389 25.4171C3.42054 23.8338 0.00387123 27.1672 1.25387 30.5005L47.7706 149.142L47.779 149.167C47.829 149.284 47.8706 149.401 47.9206 149.517C49.829 153.942 53.9957 156.676 58.529 157.751C58.9123 157.834 59.1866 157.91 59.6468 158.002C60.1049 158.103 60.7457 158.242 61.2957 158.284C61.3873 158.292 61.4707 158.292 61.5623 158.301H61.629C61.6957 158.309 61.7623 158.309 61.829 158.317H61.9207C61.979 158.326 62.0457 158.326 62.104 158.326H62.2123C62.279 158.334 62.3457 158.334 62.4123 158.334V158.334C121.324 164.757 180.759 164.757 239.671 158.334V158.334C240.379 158.334 241.071 158.301 241.738 158.234C241.954 158.209 242.163 158.184 242.371 158.159C242.396 158.151 242.429 158.151 242.454 158.142C242.596 158.126 242.738 158.101 242.879 158.076C243.088 158.051 243.296 158.009 243.504 157.967C243.921 157.876 244.111 157.809 244.676 157.615C245.241 157.421 246.18 157.081 246.768 156.797C247.355 156.514 247.763 156.242 248.254 155.934C248.863 155.551 249.441 155.158 250.028 154.719C250.281 154.525 250.454 154.401 250.638 154.226L250.538 154.167L150.971 101.551Z" fill="#808495"/>
<path d="M295.007 25.5021H294.923L203.598 73.7522L254.365 149.361L300.765 30.5021V30.3354C301.932 26.8354 298.348 23.6687 295.007 25.5021" fill="#262730"/>
<path d="M155.838 2.55972C153.505 -0.848626 148.421 -0.848626 146.171 2.55972L98.3794 73.7516L150.971 101.552L250.638 154.226C251.264 153.613 251.766 153.016 252.297 152.385C253.047 151.46 253.747 150.469 254.363 149.36L203.597 73.7516L155.838 2.55972Z" fill="#555867"/>
</svg>
